<?xml version="1.0" encoding="utf-8"?>
<!-- Generator: Adobe Illustrator 25.2.0, SVG Export Plug-In . SVG Version: 6.00 Build 0)  -->
<svg version="1.1" id="Layer_1" xmlns="http://www.w3.org/2000/svg" xmlns:xlink="http://www.w3.org/1999/xlink" x="0px" y="0px"
	 width="800px" height="1000px" viewBox="0 0 800 1000" style="enable-background:new 0 0 800 1000;" xml:space="preserve">
<style type="text/css">
	.st0{fill:#FFFFFF;stroke:#000000;stroke-width:3;stroke-miterlimit:10;}
	.st1{fill:#006C5E;}
</style>
<rect x="283.91" y="79.27" class="st0" width="310.23" height="108.73"/>
<rect x="339.58" y="234.84" class="st0" width="405.06" height="283.07"/>
<rect x="294.67" y="553.76" class="st0" width="373.83" height="238.01"/>
<rect x="357.7" y="836.09" class="st0" width="325.21" height="97.36"/>
<g>
	<rect x="109.98" y="878.91" width="248.3" height="3"/>
</g>
<g>
	<rect x="109.98" y="606.75" width="185.8" height="3"/>
</g>
<g>
	<rect x="109.98" y="293.11" width="230.11" height="3"/>
</g>
<g>
	<rect x="119.64" y="122.66" width="164.77" height="3"/>
</g>
<g>
	<rect x="108.48" y="124.16" width="3" height="756.25"/>
</g>
<g>
	<circle class="st1" cx="109.98" cy="124.16" r="17.62"/>
</g>
<g>
	<circle class="st1" cx="109.98" cy="294.84" r="17.62"/>
</g>
<g>
	<circle class="st1" cx="109.98" cy="608.25" r="17.62"/>
</g>
<g>
	<circle class="st1" cx="109.98" cy="880.41" r="17.62"/>
</g>
<g>
	<path d="M317.56,114.61l-7.15,8.1h9.35v1.35h-11.42v-1.27l7.97-9.02c1.15-1.3,1.6-2.4,1.6-3.75c0-2.47-1.52-4.32-4.15-4.32
		c-2.65,0-4.15,1.87-4.15,4.32v0.55h-1.55v-0.57c0-3.07,2-5.67,5.7-5.67c3.72,0,5.7,2.6,5.7,5.67
		C319.46,111.76,319.09,112.94,317.56,114.61z"/>
	<path d="M333.28,122.56c-0.95,1.2-2.42,1.82-4.35,1.82s-3.37-0.62-4.35-1.82c-1.22-1.55-1.83-3.72-1.83-8.22
		c0-4.45,0.6-6.65,1.83-8.17c0.97-1.2,2.42-1.85,4.35-1.85s3.4,0.65,4.35,1.85c1.22,1.52,1.83,3.72,1.83,8.17
		C335.11,118.84,334.51,121.01,333.28,122.56z M332.19,107.14c-0.72-0.92-1.82-1.45-3.25-1.45s-2.52,0.52-3.25,1.45
		c-0.92,1.17-1.38,3.17-1.38,7.2c0,4.05,0.45,6.05,1.38,7.22c0.72,0.92,1.82,1.47,3.25,1.47s2.52-0.55,3.25-1.47
		c0.92-1.17,1.38-3.17,1.38-7.22C333.56,110.31,333.11,108.31,332.19,107.14z"/>
	<path d="M344.94,124.06v-17.77l-5.05,2.25v-1.55l5.22-2.35h1.38v19.42H344.94z"/>
	<path d="M355.76,115.29h-1.57l0.5-10.65h9.45v1.37h-7.97l-0.35,7.4c0.67-1.15,2-1.95,3.77-1.95c3.42,0,5.6,2.3,5.6,6.5
		c0,4.07-2.2,6.42-5.82,6.42c-3.45,0-5.5-2.02-5.8-5.4h1.55c0.27,2.67,1.82,4.05,4.25,4.05c2.72,0,4.27-1.82,4.27-5.1
		c0-3.27-1.55-5.1-4.27-5.1C357.71,112.84,356.41,113.71,355.76,115.29z"/>
	<path d="M371.51,124.06h-1.85v-2.67h1.85V124.06z"/>
	<path d="M393.53,122.56c-0.95,1.2-2.42,1.82-4.35,1.82s-3.37-0.62-4.35-1.82c-1.22-1.55-1.83-3.72-1.83-8.22
		c0-4.45,0.6-6.65,1.83-8.17c0.97-1.2,2.42-1.85,4.35-1.85s3.4,0.65,4.35,1.85c1.22,1.52,1.83,3.72,1.83,8.17
		C395.36,118.84,394.76,121.01,393.53,122.56z M392.43,107.14c-0.72-0.92-1.82-1.45-3.25-1.45s-2.52,0.52-3.25,1.45
		c-0.92,1.17-1.38,3.17-1.38,7.2c0,4.05,0.45,6.05,1.38,7.22c0.72,0.92,1.82,1.47,3.25,1.47s2.52-0.55,3.25-1.47
		c0.92-1.17,1.38-3.17,1.38-7.22C393.81,110.31,393.36,108.31,392.43,107.14z"/>
	<path d="M408.68,122.56c-0.95,1.2-2.42,1.82-4.35,1.82s-3.37-0.62-4.35-1.82c-1.23-1.55-1.83-3.72-1.83-8.22
		c0-4.45,0.6-6.65,1.83-8.17c0.97-1.2,2.42-1.85,4.35-1.85s3.4,0.65,4.35,1.85c1.22,1.52,1.83,3.72,1.83,8.17
		C410.51,118.84,409.91,121.01,408.68,122.56z M407.58,107.14c-0.72-0.92-1.82-1.45-3.25-1.45s-2.52,0.52-3.25,1.45
		c-0.92,1.17-1.37,3.17-1.37,7.2c0,4.05,0.45,6.05,1.37,7.22c0.72,0.92,1.82,1.47,3.25,1.47s2.52-0.55,3.25-1.47
		c0.92-1.17,1.38-3.17,1.38-7.22C408.96,110.31,408.51,108.31,407.58,107.14z"/>
</g>
<g>
	<path d="M308.21,150.97v-1.32h19.97v1.32h-8.95v4.6h-1.52v-4.6H308.21z M309.34,142.25c0-1.27,0.52-2.22,1.58-2.92
		c1.52-1.02,4.07-1.45,7.32-1.45c3.27,0,5.8,0.42,7.3,1.45c1.08,0.7,1.6,1.65,1.6,2.92c0,1.27-0.52,2.25-1.6,2.95
		c-1.5,1.02-4.02,1.45-7.3,1.45c-3.25,0-5.8-0.43-7.32-1.45C309.86,144.5,309.34,143.52,309.34,142.25z M311.29,154.02v4.8h15.8
		v1.32h-17.32v-6.12H311.29z M310.86,142.25c0,0.8,0.35,1.47,1.15,2c1.15,0.75,3.22,1.07,6.22,1.07c2.97,0,5.07-0.33,6.22-1.07
		c0.78-0.52,1.15-1.2,1.15-2c0-0.83-0.38-1.5-1.15-1.97c-1.15-0.75-3.25-1.12-6.22-1.12c-3,0-5.07,0.38-6.22,1.12
		C311.21,140.75,310.86,141.42,310.86,142.25z"/>
	<path d="M332.96,138.17h11.15v1.32h-4.82v3.2c0,3.67,2.6,5.8,5.2,6.45v1.38c-2.7-0.62-4.97-2.35-5.92-4.55
		c-0.9,2.25-3.17,4.25-5.95,4.87v-1.4c2.7-0.6,5.15-2.97,5.15-6.75v-3.2h-4.8V138.17z M351.23,160.14h-16.82v-7.02h1.52v5.7h15.3
		V160.14z M350.78,153.27h-1.53v-8.55h-5.2v-1.32h5.2v-5.52h1.53V153.27z"/>
	<path d="M356.96,149.77v-11.6h10.42v2.52h5.87v-2.82h1.53v15.4h-1.53v-5.85h-5.87v2.35H356.96z M375.23,160.14h-16.82v-7.02h1.52
		v5.7h15.3V160.14z M365.86,139.5h-7.37v8.97h7.37V139.5z M367.39,142.02v4.07h5.87v-4.07H367.39z"/>
	<path d="M380.21,142.1v-1.38h5.7v-3.55h1.52v3.55h5.7v1.38H380.21z M381.19,151.77c0-2.77,0.72-4.72,2.02-5.87
		c0.9-0.8,2.07-1.2,3.45-1.2c1.35,0,2.52,0.4,3.45,1.2c0.8,0.73,1.37,1.75,1.7,3.1h5.35v-11.12h1.52v22.14h-1.52v-9.67h-5.12
		c0.05,0.45,0.08,0.92,0.08,1.42c0,2.8-0.72,4.75-2,5.9c-0.92,0.8-2.1,1.2-3.45,1.2c-1.38,0-2.55-0.4-3.45-1.2
		C381.91,156.52,381.19,154.57,381.19,151.77z M382.71,151.77c0,2.25,0.5,3.87,1.42,4.82c0.65,0.65,1.5,0.95,2.52,0.95
		c1,0,1.87-0.3,2.5-0.95c0.95-0.95,1.42-2.57,1.42-4.82s-0.47-3.87-1.42-4.8c-0.62-0.65-1.5-0.97-2.5-0.97
		c-1.03,0-1.88,0.32-2.52,0.97C383.21,147.9,382.71,149.52,382.71,151.77z"/>
	<path d="M417.86,158.72v-17.77l-5.05,2.25v-1.55l5.22-2.35h1.38v19.42H417.86z"/>
	<path d="M426.59,150.07v-1.35h9.2v-3.7h1.52v3.7h9.25v1.35H426.59z M427.71,156.79c0-1.1,0.5-1.97,1.55-2.57
		c1.5-0.92,3.97-1.4,7.35-1.4c3.37,0,5.85,0.48,7.32,1.4c1.05,0.6,1.57,1.48,1.57,2.57s-0.53,1.97-1.57,2.6
		c-1.47,0.92-3.95,1.32-7.32,1.32c-3.38,0-5.85-0.4-7.35-1.32C428.21,158.77,427.71,157.89,427.71,156.79z M428.14,139.47v-1.3
		h16.87v1.3h-7.7v0.42c0,2.62,4.57,4.27,8,4.55v1.38c-3.5-0.33-7.32-1.77-8.75-3.85c-1.47,2.1-5.32,3.6-8.8,3.85v-1.38
		c3.4-0.17,8.02-1.95,8.02-4.55v-0.42H428.14z M429.24,156.79c0,0.6,0.3,1.12,0.92,1.5c1.15,0.75,3.35,1.12,6.45,1.12
		c3.1,0,5.3-0.38,6.45-1.12c0.65-0.38,0.92-0.9,0.92-1.5c0-0.6-0.28-1.1-0.92-1.55c-1.15-0.7-3.35-1.07-6.45-1.07
		c-3.1,0-5.3,0.38-6.45,1.07C429.54,155.69,429.24,156.19,429.24,156.79z"/>
	<path d="M460.69,143.15h14.22v-4.85h1.52v13.15h-7.82v6.27h9.05v1.27h-19.72v-1.27h9.15v-6.27h-7.92V138.3h1.52V143.15z
		 M474.91,150.12v-5.62h-14.22v5.62H474.91z"/>
	<path d="M484.89,143.35v2.75h15.5v1.25h-7.85v2.7h9.25v1.25h-19.97v-1.25h9.2v-2.7h-7.65v-9.17h16.87v1.25h-15.35v2.7h15.05v1.22
		H484.89z M482.94,157.17c0-1,0.58-1.75,1.6-2.32c1.52-0.82,4.07-1.22,7.3-1.22c3.25,0,5.77,0.4,7.3,1.22
		c1.02,0.58,1.6,1.32,1.6,2.32c0,1.05-0.58,1.82-1.6,2.37c-1.52,0.83-4.05,1.17-7.3,1.17c-3.22,0-5.77-0.35-7.3-1.17
		C483.51,158.99,482.94,158.22,482.94,157.17z M484.46,157.17c0,0.55,0.3,0.95,0.85,1.3c1.17,0.7,3.45,1,6.52,1s5.32-0.3,6.5-1
		c0.6-0.35,0.88-0.75,0.88-1.3c0-0.48-0.28-0.92-0.88-1.25c-1.17-0.7-3.42-1.02-6.5-1.02s-5.35,0.32-6.52,1.02
		C484.76,156.24,484.46,156.69,484.46,157.17z"/>
</g>
<g>
	<path d="M384.39,285.07l-7.15,8.1h9.35v1.35h-11.42v-1.28l7.97-9.02c1.15-1.3,1.6-2.4,1.6-3.75c0-2.47-1.52-4.32-4.15-4.32
		c-2.65,0-4.15,1.88-4.15,4.32v0.55h-1.55v-0.58c0-3.07,2-5.67,5.7-5.67c3.72,0,5.7,2.6,5.7,5.67
		C386.29,282.22,385.92,283.39,384.39,285.07z"/>
	<path d="M400.12,293.01c-0.95,1.2-2.42,1.82-4.35,1.82s-3.37-0.62-4.35-1.82c-1.23-1.55-1.83-3.72-1.83-8.22
		c0-4.45,0.6-6.65,1.83-8.17c0.97-1.2,2.42-1.85,4.35-1.85s3.4,0.65,4.35,1.85c1.22,1.53,1.83,3.72,1.83,8.17
		C401.94,289.29,401.34,291.46,400.12,293.01z M399.02,277.59c-0.72-0.92-1.82-1.45-3.25-1.45s-2.52,0.53-3.25,1.45
		c-0.92,1.17-1.38,3.17-1.38,7.2c0,4.05,0.45,6.05,1.38,7.22c0.72,0.92,1.82,1.47,3.25,1.47s2.52-0.55,3.25-1.47
		c0.92-1.17,1.38-3.17,1.38-7.22C400.39,280.77,399.94,278.77,399.02,277.59z"/>
	<path d="M411.77,294.51v-17.77l-5.05,2.25v-1.55l5.22-2.35h1.38v19.42H411.77z"/>
	<path d="M419.79,289.31c0-2.6,1.45-4.42,3.82-5.05c-1.95-0.62-3.25-2.27-3.25-4.5c0-2.95,2.17-5,5.7-5s5.7,2.05,5.7,5
		c0,2.22-1.3,3.87-3.25,4.5c2.38,0.62,3.85,2.45,3.85,5.05c0,3.47-2.55,5.52-6.3,5.52S419.79,292.79,419.79,289.31z M426.07,284.92
		c-2.75,0-4.72,1.6-4.72,4.3s1.97,4.27,4.72,4.27c2.77,0,4.72-1.57,4.72-4.27S428.84,284.92,426.07,284.92z M430.22,279.87
		c0-2.27-1.7-3.72-4.15-3.72s-4.15,1.45-4.15,3.72s1.7,3.7,4.15,3.7S430.22,282.14,430.22,279.87z"/>
	<path d="M438.34,294.51h-1.85v-2.67h1.85V294.51z"/>
	<path d="M460.37,293.01c-0.95,1.2-2.42,1.82-4.35,1.82s-3.37-0.62-4.35-1.82c-1.23-1.55-1.83-3.72-1.83-8.22
		c0-4.45,0.6-6.65,1.83-8.17c0.97-1.2,2.42-1.85,4.35-1.85s3.4,0.65,4.35,1.85c1.22,1.53,1.83,3.72,1.83,8.17
		C462.19,289.29,461.59,291.46,460.37,293.01z M459.27,277.59c-0.72-0.92-1.82-1.45-3.25-1.45s-2.52,0.53-3.25,1.45
		c-0.92,1.17-1.38,3.17-1.38,7.2c0,4.05,0.45,6.05,1.38,7.22c0.72,0.92,1.82,1.47,3.25,1.47s2.52-0.55,3.25-1.47
		c0.92-1.17,1.38-3.17,1.38-7.22C460.64,280.77,460.19,278.77,459.27,277.59z"/>
	<path d="M464.89,289.31c0-2.6,1.45-4.42,3.82-5.05c-1.95-0.62-3.25-2.27-3.25-4.5c0-2.95,2.17-5,5.7-5s5.7,2.05,5.7,5
		c0,2.22-1.3,3.87-3.25,4.5c2.37,0.62,3.85,2.45,3.85,5.05c0,3.47-2.55,5.52-6.3,5.52S464.89,292.79,464.89,289.31z M471.17,284.92
		c-2.75,0-4.72,1.6-4.72,4.3s1.97,4.27,4.72,4.27c2.77,0,4.72-1.57,4.72-4.27S473.94,284.92,471.17,284.92z M475.31,279.87
		c0-2.27-1.7-3.72-4.15-3.72s-4.15,1.45-4.15,3.72s1.7,3.7,4.15,3.7S475.31,282.14,475.31,279.87z"/>
</g>
<g>
	<path d="M384.62,313.21h-8.8v-1.32h10.32v1c0,6.75-4.4,10.1-10.92,10.72v-1.32C380.84,321.68,384.62,318.73,384.62,313.21z
		 M385.49,334.3c-2.82,0-5.3-0.42-6.87-1.45c-1.1-0.73-1.75-1.72-1.75-3.05c0-1.32,0.65-2.3,1.75-3.05
		c1.58-1.03,4.05-1.47,6.87-1.47s5.3,0.45,6.87,1.47c1.1,0.75,1.77,1.72,1.77,3.05c0,1.33-0.67,2.32-1.77,3.05
		C390.79,333.88,388.32,334.3,385.49,334.3z M385.49,326.58c-2.5,0-4.7,0.42-5.95,1.25c-0.72,0.5-1.15,1.15-1.15,1.97
		c0,0.8,0.42,1.45,1.15,1.95c1.25,0.85,3.45,1.25,5.95,1.25c2.5,0,4.67-0.4,5.95-1.25c0.75-0.5,1.17-1.15,1.17-1.95
		c0-0.82-0.42-1.47-1.17-1.97C390.17,327,387.99,326.58,385.49,326.58z M386.92,315.68v-1.33h5.17v-2.77h1.53v12.67h-1.53v-3.8
		h-5.47v-1.3h5.47v-3.47H386.92z"/>
	<path d="M405.94,311.73v3c0,3.8,2.67,6.1,5.5,7.02v1.38c-2.95-0.85-5.35-2.82-6.27-5.02c-0.77,2.22-3.12,4.37-6.27,5.3V322
		c2.95-0.95,5.52-3.52,5.52-7.27v-3H405.94z M409.49,334.3c-2.82,0-5.3-0.42-6.87-1.45c-1.1-0.73-1.75-1.72-1.75-3.05
		c0-1.32,0.65-2.3,1.75-3.05c1.58-1.03,4.05-1.47,6.87-1.47s5.3,0.45,6.87,1.47c1.1,0.75,1.77,1.72,1.77,3.05
		c0,1.33-0.67,2.32-1.77,3.05C414.79,333.88,412.32,334.3,409.49,334.3z M409.49,326.58c-2.5,0-4.7,0.42-5.95,1.25
		c-0.72,0.5-1.15,1.15-1.15,1.97c0,0.8,0.42,1.45,1.15,1.95c1.25,0.85,3.45,1.25,5.95,1.25c2.5,0,4.67-0.4,5.95-1.25
		c0.75-0.5,1.17-1.15,1.17-1.95c0-0.82-0.42-1.47-1.17-1.97C414.17,327,411.99,326.58,409.49,326.58z M417.62,324.18h-1.53v-6.82
		h-5.5v-1.33h5.5v-4.45h1.53V324.18z"/>
	<path d="M429.92,332.18h-6.02v-20.2h7.67v1.38h-6.17v17.5h4.75c2.12,0,3.8-0.47,4.92-1.47v-17.67h1.5v9.22h3.8v-9.35h1.5v22.14
		h-1.5V322.3h-3.8v11.17h-1.5v-2.8C433.99,331.7,432.19,332.18,429.92,332.18z"/>
	<path d="M461.17,311.73v4.07c0,3.8,2.67,6.1,5.5,7v1.4c-2.95-0.85-5.35-2.82-6.27-5.02c-0.77,2.22-3.12,4.37-6.27,5.3v-1.4
		c2.95-0.98,5.52-3.52,5.52-7.27v-4.07H461.17z M473.29,333.85h-16.82v-7.02h1.52v5.7h15.3V333.85z M472.84,326.98h-1.53v-15.4h1.53
		V326.98z"/>
	<path d="M478.27,324.68v-1.33h19.97v1.33h-8.95v4.6h-1.52v-4.6H478.27z M496.69,319.9h-16.87v-8.02h16.87V319.9z M481.34,327.73
		v4.8h15.8v1.32h-17.32v-6.12H481.34z M495.17,318.58v-5.4h-13.82v5.4H495.17z"/>
	<path d="M504.22,315.83h7.45v-3.95h1.52v11.1h-10.47v-11.1h1.5V315.83z M503.77,329.95c0-1.27,0.58-2.25,1.62-2.95
		c1.47-0.97,3.87-1.47,6.9-1.47c3,0,5.4,0.5,6.9,1.47c1.05,0.7,1.6,1.67,1.6,2.95c0,1.25-0.55,2.22-1.6,2.92
		c-1.5,0.97-3.9,1.42-6.9,1.42c-3.02,0-5.42-0.45-6.9-1.42C504.34,332.18,503.77,331.2,503.77,329.95z M511.67,321.63v-4.5h-7.45
		v4.5H511.67z M505.29,329.95c0,0.72,0.35,1.32,1.03,1.82c1.12,0.8,3.2,1.22,5.97,1.22c2.75,0,4.82-0.42,5.97-1.22
		c0.65-0.5,1-1.1,1-1.82c0-0.75-0.35-1.38-1-1.85c-1.15-0.8-3.22-1.22-5.97-1.22c-2.77,0-4.85,0.42-5.97,1.22
		C505.64,328.58,505.29,329.2,505.29,329.95z M520.22,311.58v5.45h3.5v1.35h-3.5v6.07h-1.52v-12.87H520.22z"/>
	<path d="M526.27,323.78v-1.35h9.2v-3.7h1.52v3.7h9.25v1.35H526.27z M536.22,315.18c-1.47,2.22-5.12,3.82-9.3,4.37v-1.4
		c4.07-0.53,8.55-2.45,8.55-5.62v-0.83h1.52v0.83c0,3.17,4.3,5.1,8.57,5.62v1.4C541.24,318.98,537.67,317.35,536.22,315.18z
		 M527.39,330.5c0-1.1,0.5-1.97,1.55-2.57c1.5-0.92,3.97-1.4,7.35-1.4c3.37,0,5.85,0.47,7.32,1.4c1.05,0.6,1.57,1.47,1.57,2.57
		s-0.53,1.97-1.57,2.6c-1.47,0.92-3.95,1.32-7.32,1.32c-3.38,0-5.85-0.4-7.35-1.32C527.89,332.48,527.39,331.6,527.39,330.5z
		 M528.92,330.5c0,0.6,0.3,1.12,0.92,1.5c1.15,0.75,3.35,1.12,6.45,1.12c3.1,0,5.3-0.38,6.45-1.12c0.65-0.38,0.92-0.9,0.92-1.5
		s-0.28-1.1-0.92-1.55c-1.15-0.7-3.35-1.07-6.45-1.07c-3.1,0-5.3,0.37-6.45,1.07C529.22,329.4,528.92,329.9,528.92,330.5z"/>
	<path d="M562.49,314.76h-12.57v-1.27h5.55v-2.62h1.5v2.62h5.52V314.76z M550.62,320.93c0-1.2,0.55-2.15,1.5-2.85
		c0.98-0.72,2.4-1.15,4.07-1.15c1.7,0,3.1,0.42,4.1,1.15c0.95,0.7,1.5,1.65,1.5,2.85c0,1.17-0.55,2.15-1.5,2.85
		c-1,0.75-2.4,1.15-4.1,1.15c-1.67,0-3.1-0.4-4.07-1.15C551.17,323.08,550.62,322.1,550.62,320.93z M551.77,327.33h16.45v6.8h-1.52
		v-5.47h-14.92V327.33z M552.12,320.93c0,0.73,0.35,1.38,0.92,1.83c0.73,0.6,1.88,0.95,3.15,0.95c1.3,0,2.45-0.35,3.17-0.95
		c0.57-0.45,0.92-1.1,0.92-1.83c0-0.75-0.35-1.35-0.92-1.82c-0.73-0.6-1.88-0.92-3.17-0.92c-1.27,0-2.42,0.33-3.15,0.92
		C552.47,319.58,552.12,320.18,552.12,320.93z M568.22,311.58v6.02h3.5v1.32h-3.5v5.97h-1.52v-13.32H568.22z"/>
	<path d="M592.22,311.58v9.52h3.72v1.3h-3.72v11.3h-1.52v-2.87c-1.2,1.07-3.32,1.57-5.77,1.57h-10.45v-1.27h3.72V320.3h1.52v10.82
		h5.4c2.35,0,4.35-0.55,5.57-1.58v-17.97H592.22z M584.59,320.25v-6.87h-9.25v-1.37h10.77v8.05c0,2.25-0.22,4.77-0.58,6.35h-1.52
		C584.39,324.83,584.59,322.38,584.59,320.25z"/>
	<path d="M605.5,322.3V321h9.2v-3.2h1.52v3.2h9.25v1.3H605.5z M607.04,313.16v-1.27h16.87v1.27h-7.7c0,2.4,4.55,3.92,8,4.15v1.3
		c-3.6-0.25-7.47-1.62-8.75-3.52c-1.3,1.95-5.22,3.3-8.82,3.52c0-0.45,0.02-0.88,0.02-1.3c3.42-0.17,8.02-1.72,8.02-4.15H607.04z
		 M608.57,330.13v2.62h15.92V334h-17.45v-5.12h15.35v-2.67h-15.35v-1.25h16.87v5.17H608.57z"/>
	<path d="M629.94,316.98c0-1.88,0.7-3.32,1.85-4.25c0.97-0.83,2.32-1.28,3.87-1.28c1.52,0,2.85,0.45,3.85,1.28
		c1,0.8,1.67,2,1.82,3.55h5.2v-4.7h1.53v11.47h-1.53v-5.42h-5.2c-0.15,1.55-0.8,2.77-1.82,3.6c-1,0.82-2.33,1.32-3.85,1.32
		c-1.55,0-2.9-0.5-3.87-1.32C630.64,320.3,629.94,318.85,629.94,316.98z M631.44,316.98c0,1.37,0.47,2.45,1.3,3.17
		c0.72,0.67,1.75,1.05,2.92,1.05c1.15,0,2.17-0.38,2.9-1.05c0.83-0.72,1.3-1.8,1.3-3.17c0-1.38-0.47-2.45-1.3-3.17
		c-0.72-0.67-1.75-1.02-2.9-1.02c-1.17,0-2.2,0.35-2.92,1.02C631.92,314.53,631.44,315.6,631.44,316.98z M646.54,327.95v-3.05h1.53
		v9.1h-16.37v-9.1h1.52v3.05H646.54z M646.54,329.28h-13.32v3.42h13.32V329.28z"/>
</g>
<g>
	<path d="M384.39,416.3l-7.15,8.1h9.35v1.35h-11.42v-1.28l7.97-9.02c1.15-1.3,1.6-2.4,1.6-3.75c0-2.47-1.52-4.32-4.15-4.32
		c-2.65,0-4.15,1.88-4.15,4.32v0.55h-1.55v-0.58c0-3.07,2-5.67,5.7-5.67c3.72,0,5.7,2.6,5.7,5.67
		C386.29,413.45,385.92,414.63,384.39,416.3z"/>
	<path d="M400.12,424.25c-0.95,1.2-2.42,1.82-4.35,1.82s-3.37-0.62-4.35-1.82c-1.23-1.55-1.83-3.72-1.83-8.22
		c0-4.45,0.6-6.65,1.83-8.17c0.97-1.2,2.42-1.85,4.35-1.85s3.4,0.65,4.35,1.85c1.22,1.53,1.83,3.72,1.83,8.17
		C401.94,420.53,401.34,422.7,400.12,424.25z M399.02,408.83c-0.72-0.92-1.82-1.45-3.25-1.45s-2.52,0.53-3.25,1.45
		c-0.92,1.17-1.38,3.17-1.38,7.2c0,4.05,0.45,6.05,1.38,7.22c0.72,0.92,1.82,1.47,3.25,1.47s2.52-0.55,3.25-1.47
		c0.92-1.17,1.38-3.17,1.38-7.22C400.39,412,399.94,410,399.02,408.83z"/>
	<path d="M411.77,425.75v-17.77l-5.05,2.25v-1.55l5.22-2.35h1.38v19.42H411.77z"/>
	<path d="M419.79,420.55c0-2.6,1.45-4.42,3.82-5.05c-1.95-0.62-3.25-2.27-3.25-4.5c0-2.95,2.17-5,5.7-5s5.7,2.05,5.7,5
		c0,2.22-1.3,3.87-3.25,4.5c2.38,0.62,3.85,2.45,3.85,5.05c0,3.47-2.55,5.52-6.3,5.52S419.79,424.03,419.79,420.55z M426.07,416.15
		c-2.75,0-4.72,1.6-4.72,4.3s1.97,4.27,4.72,4.27c2.77,0,4.72-1.57,4.72-4.27S428.84,416.15,426.07,416.15z M430.22,411.1
		c0-2.27-1.7-3.72-4.15-3.72s-4.15,1.45-4.15,3.72s1.7,3.7,4.15,3.7S430.22,413.38,430.22,411.1z"/>
	<path d="M438.34,425.75h-1.85v-2.67h1.85V425.75z"/>
	<path d="M460.37,424.25c-0.95,1.2-2.42,1.82-4.35,1.82s-3.37-0.62-4.35-1.82c-1.23-1.55-1.83-3.72-1.83-8.22
		c0-4.45,0.6-6.65,1.83-8.17c0.97-1.2,2.42-1.85,4.35-1.85s3.4,0.65,4.35,1.85c1.22,1.53,1.83,3.72,1.83,8.17
		C462.19,420.53,461.59,422.7,460.37,424.25z M459.27,408.83c-0.72-0.92-1.82-1.45-3.25-1.45s-2.52,0.53-3.25,1.45
		c-0.92,1.17-1.38,3.17-1.38,7.2c0,4.05,0.45,6.05,1.38,7.22c0.72,0.92,1.82,1.47,3.25,1.47s2.52-0.55,3.25-1.47
		c0.92-1.17,1.38-3.17,1.38-7.22C460.64,412,460.19,410,459.27,408.83z"/>
	<path d="M467.22,421.38c0.28,2.27,1.75,3.32,3.82,3.32c3.17,0,4.3-2.38,4.37-8.25c-0.7,1.47-2.3,2.47-4.52,2.47
		c-3.55,0-5.82-2.47-5.82-6.47s2.42-6.45,5.97-6.45c2.47,0,4.37,1.1,5.32,3.47c0.53,1.3,0.65,3.02,0.65,5.1V415
		c0,8.3-1.82,11.07-6,11.07c-3,0-5.05-1.57-5.42-4.7H467.22z M466.64,412.45c0,3.22,1.75,5.1,4.4,5.1c2.62,0,4.37-1.88,4.37-5.1
		c0-3.2-1.75-5.07-4.37-5.07C468.39,407.38,466.64,409.25,466.64,412.45z"/>
	<path d="M490.84,415.88c-1.05,0-1.62,0.88-1.65,2.77h-1.42c0-2.57,1.07-4.07,3.05-4.07c2.85,0,2.87,2.95,4.7,2.95
		c1.05,0,1.62-0.87,1.65-2.8h1.45c-0.02,2.6-1.07,4.1-3.05,4.1C492.71,418.83,492.67,415.88,490.84,415.88z"/>
	<path d="M518.99,416.3l-7.15,8.1h9.35v1.35h-11.42v-1.28l7.97-9.02c1.15-1.3,1.6-2.4,1.6-3.75c0-2.47-1.52-4.32-4.15-4.32
		c-2.65,0-4.15,1.88-4.15,4.32v0.55h-1.55v-0.58c0-3.07,2-5.67,5.7-5.67c3.72,0,5.7,2.6,5.7,5.67
		C520.89,413.45,520.51,414.63,518.99,416.3z"/>
	<path d="M534.71,424.25c-0.95,1.2-2.42,1.82-4.35,1.82s-3.37-0.62-4.35-1.82c-1.22-1.55-1.83-3.72-1.83-8.22
		c0-4.45,0.6-6.65,1.83-8.17c0.97-1.2,2.42-1.85,4.35-1.85s3.4,0.65,4.35,1.85c1.22,1.53,1.83,3.72,1.83,8.17
		C536.54,420.53,535.94,422.7,534.71,424.25z M533.61,408.83c-0.72-0.92-1.82-1.45-3.25-1.45s-2.52,0.53-3.25,1.45
		c-0.92,1.17-1.38,3.17-1.38,7.2c0,4.05,0.45,6.05,1.38,7.22c0.72,0.92,1.82,1.47,3.25,1.47s2.52-0.55,3.25-1.47
		c0.92-1.17,1.38-3.17,1.38-7.22C534.99,412,534.54,410,533.61,408.83z"/>
	<path d="M546.36,425.75v-17.77l-5.05,2.25v-1.55l5.22-2.35h1.38v19.42H546.36z"/>
	<path d="M556.71,421.38c0.28,2.27,1.75,3.32,3.82,3.32c3.17,0,4.3-2.38,4.37-8.25c-0.7,1.47-2.3,2.47-4.52,2.47
		c-3.55,0-5.82-2.47-5.82-6.47s2.42-6.45,5.97-6.45c2.47,0,4.37,1.1,5.32,3.47c0.53,1.3,0.65,3.02,0.65,5.1V415
		c0,8.3-1.82,11.07-6,11.07c-3,0-5.05-1.57-5.42-4.7H556.71z M556.14,412.45c0,3.22,1.75,5.1,4.4,5.1c2.62,0,4.37-1.88,4.37-5.1
		c0-3.2-1.75-5.07-4.37-5.07C557.89,407.38,556.14,409.25,556.14,412.45z"/>
	<path d="M572.94,425.75h-1.85v-2.67h1.85V425.75z"/>
	<path d="M587.74,424.25c-0.95,1.2-2.42,1.82-4.35,1.82s-3.37-0.62-4.35-1.82c-1.22-1.55-1.83-3.72-1.83-8.22
		c0-4.45,0.6-6.65,1.83-8.17c0.97-1.2,2.42-1.85,4.35-1.85s3.4,0.65,4.35,1.85c1.22,1.53,1.83,3.72,1.83,8.17
		C589.56,420.53,588.96,422.7,587.74,424.25z M586.64,408.83c-0.72-0.92-1.82-1.45-3.25-1.45s-2.52,0.53-3.25,1.45
		c-0.92,1.17-1.38,3.17-1.38,7.2c0,4.05,0.45,6.05,1.38,7.22c0.72,0.92,1.82,1.47,3.25,1.47s2.52-0.55,3.25-1.47
		c0.92-1.17,1.38-3.17,1.38-7.22C588.01,412,587.56,410,586.64,408.83z"/>
	<path d="M594.59,421.38c0.28,2.27,1.75,3.32,3.82,3.32c3.17,0,4.3-2.38,4.37-8.25c-0.7,1.47-2.3,2.47-4.52,2.47
		c-3.55,0-5.82-2.47-5.82-6.47s2.42-6.45,5.97-6.45c2.47,0,4.37,1.1,5.32,3.47c0.53,1.3,0.65,3.02,0.65,5.1V415
		c0,8.3-1.83,11.07-6,11.07c-3,0-5.05-1.57-5.42-4.7H594.59z M594.01,412.45c0,3.22,1.75,5.1,4.4,5.1c2.62,0,4.37-1.88,4.37-5.1
		c0-3.2-1.75-5.07-4.37-5.07C595.76,407.38,594.01,409.25,594.01,412.45z"/>
</g>
<g>
	<path d="M384.62,444.44h-8.8v-1.32h10.32v1c0,6.75-4.4,10.1-10.92,10.72v-1.32C380.84,452.91,384.62,449.96,384.62,444.44z
		 M385.49,465.54c-2.82,0-5.3-0.42-6.87-1.45c-1.1-0.73-1.75-1.72-1.75-3.05c0-1.32,0.65-2.3,1.75-3.05
		c1.58-1.03,4.05-1.47,6.87-1.47s5.3,0.45,6.87,1.47c1.1,0.75,1.77,1.72,1.77,3.05c0,1.33-0.67,2.32-1.77,3.05
		C390.79,465.11,388.32,465.54,385.49,465.54z M385.49,457.81c-2.5,0-4.7,0.42-5.95,1.25c-0.72,0.5-1.15,1.15-1.15,1.97
		c0,0.8,0.42,1.45,1.15,1.95c1.25,0.85,3.45,1.25,5.95,1.25c2.5,0,4.67-0.4,5.95-1.25c0.75-0.5,1.17-1.15,1.17-1.95
		c0-0.82-0.42-1.47-1.17-1.97C390.17,458.24,387.99,457.81,385.49,457.81z M386.92,446.92v-1.33h5.17v-2.77h1.53v12.67h-1.53v-3.8
		h-5.47v-1.3h5.47v-3.47H386.92z"/>
	<path d="M405.94,442.97v3c0,3.8,2.67,6.1,5.5,7.02v1.38c-2.95-0.85-5.35-2.82-6.27-5.02c-0.77,2.22-3.12,4.37-6.27,5.3v-1.4
		c2.95-0.95,5.52-3.52,5.52-7.27v-3H405.94z M409.49,465.54c-2.82,0-5.3-0.42-6.87-1.45c-1.1-0.73-1.75-1.72-1.75-3.05
		c0-1.32,0.65-2.3,1.75-3.05c1.58-1.03,4.05-1.47,6.87-1.47s5.3,0.45,6.87,1.47c1.1,0.75,1.77,1.72,1.77,3.05
		c0,1.33-0.67,2.32-1.77,3.05C414.79,465.11,412.32,465.54,409.49,465.54z M409.49,457.81c-2.5,0-4.7,0.42-5.95,1.25
		c-0.72,0.5-1.15,1.15-1.15,1.97c0,0.8,0.42,1.45,1.15,1.95c1.25,0.85,3.45,1.25,5.95,1.25c2.5,0,4.67-0.4,5.95-1.25
		c0.75-0.5,1.17-1.15,1.17-1.95c0-0.82-0.42-1.47-1.17-1.97C414.17,458.24,411.99,457.81,409.49,457.81z M417.62,455.41h-1.53v-6.82
		h-5.5v-1.33h5.5v-4.45h1.53V455.41z"/>
	<path d="M429.92,463.41h-6.02v-20.2h7.67v1.38h-6.17v17.5h4.75c2.12,0,3.8-0.47,4.92-1.47v-17.67h1.5v9.22h3.8v-9.35h1.5v22.14
		h-1.5v-11.42h-3.8v11.17h-1.5v-2.8C433.99,462.94,432.19,463.41,429.92,463.41z"/>
	<path d="M454.44,448.62c0-2,0.67-3.57,1.82-4.62c1-0.85,2.32-1.3,3.9-1.3c1.57,0,2.9,0.45,3.85,1.3c1.22,1.05,1.85,2.62,1.85,4.62
		c0,2.02-0.62,3.62-1.85,4.62c-0.95,0.85-2.27,1.35-3.85,1.35c-1.58,0-2.9-0.5-3.9-1.35C455.12,452.24,454.44,450.64,454.44,448.62z
		 M455.77,457.71h16.45v7.65h-1.52v-6.32h-14.92V457.71z M455.94,448.62c0,1.58,0.48,2.77,1.33,3.57c0.75,0.65,1.72,1.05,2.9,1.05
		s2.15-0.4,2.87-1.05c0.85-0.8,1.32-2,1.32-3.57c0-1.55-0.47-2.75-1.32-3.55c-0.72-0.7-1.7-1.05-2.87-1.05s-2.15,0.35-2.9,1.05
		C456.42,445.87,455.94,447.07,455.94,448.62z M472.21,445.77h3.37v1.35h-3.37v3.77h3.37v1.38h-3.37v3.22h-1.52v-12.67h1.52V445.77z
		"/>
	<path d="M490.49,445.99h-12.57v-1.27h5.55v-2.62h1.5v2.62h5.52V445.99z M478.62,452.16c0-1.2,0.55-2.15,1.5-2.85
		c0.98-0.72,2.4-1.15,4.07-1.15c1.7,0,3.1,0.42,4.1,1.15c0.95,0.7,1.5,1.65,1.5,2.85c0,1.17-0.55,2.15-1.5,2.85
		c-1,0.75-2.4,1.15-4.1,1.15c-1.67,0-3.1-0.4-4.07-1.15C479.17,454.31,478.62,453.34,478.62,452.16z M479.77,458.56h16.45v6.8h-1.52
		v-5.47h-14.92V458.56z M480.12,452.16c0,0.73,0.35,1.38,0.92,1.83c0.73,0.6,1.88,0.95,3.15,0.95c1.3,0,2.45-0.35,3.17-0.95
		c0.57-0.45,0.92-1.1,0.92-1.83c0-0.75-0.35-1.35-0.92-1.82c-0.73-0.6-1.88-0.92-3.17-0.92c-1.27,0-2.42,0.33-3.15,0.92
		C480.47,450.81,480.12,451.42,480.12,452.16z M496.21,442.82v6.02h3.5v1.32h-3.5v5.97h-1.52v-13.32H496.21z"/>
	<path d="M520.21,442.82v9.52h3.72v1.3h-3.72v11.3h-1.52v-2.87c-1.2,1.07-3.32,1.57-5.77,1.57h-10.45v-1.27h3.72v-10.82h1.52v10.82
		h5.4c2.35,0,4.35-0.55,5.57-1.58v-17.97H520.21z M512.59,451.49v-6.87h-9.25v-1.37h10.77v8.05c0,2.25-0.22,4.77-0.58,6.35h-1.52
		C512.39,456.06,512.59,453.61,512.59,451.49z"/>
	<path d="M534.24,443.12h11.15v1.32h-4.82v3.2c0,3.67,2.6,5.8,5.2,6.45v1.38c-2.7-0.62-4.97-2.35-5.92-4.55
		c-0.9,2.25-3.17,4.25-5.95,4.87v-1.4c2.7-0.6,5.15-2.97,5.15-6.75v-3.2h-4.8V443.12z M552.51,465.09h-16.82v-7.02h1.52v5.7h15.3
		V465.09z M552.06,458.21h-1.53v-8.55h-5.2v-1.32h5.2v-5.52h1.53V458.21z"/>
	<path d="M564.12,442.97v4.07c0,3.8,2.67,6.1,5.52,7v1.4c-2.97-0.85-5.35-2.82-6.3-5.02c-0.77,2.22-3.12,4.37-6.25,5.3v-1.4
		c2.92-0.98,5.5-3.52,5.5-7.27v-4.07H564.12z M560.82,458.06v5.7h15.05v1.32h-16.57v-7.02H560.82z M575.44,442.82v6.45h3.5v1.32
		h-3.5v7.62h-1.52v-15.4H575.44z"/>
	<path d="M588.39,442.97v2.07c0,3.55,2.7,5.75,5.5,6.55v1.4c-2.9-0.72-5.37-2.75-6.27-4.8c-0.77,2.2-3.27,4.25-6.27,5.05v-1.38
		c2.85-0.87,5.52-3.27,5.52-6.82v-2.07H588.39z M585.22,460.96v3.02h15.15v1.25h-16.67v-5.52h14.85v-3.05h-14.85v-1.25h16.37v5.55
		H585.22z M600.06,453.29h-1.53v-10.47h1.53V453.29z"/>
	<path d="M613.17,448.96c0-2.07,0.65-3.77,1.8-4.87c0.95-0.92,2.27-1.4,3.9-1.4c1.6,0,2.92,0.48,3.9,1.4
		c0.45,0.42,0.8,0.95,1.1,1.55h5.9v-2.83h1.53v15.4h-1.53v-5.85h-5.92c-0.28,0.58-0.65,1.1-1.08,1.5c-0.97,0.9-2.3,1.42-3.9,1.42
		c-1.62,0-2.95-0.53-3.9-1.42C613.82,452.79,613.17,451.12,613.17,448.96z M614.67,448.96c0,1.67,0.45,3.02,1.32,3.9
		c0.7,0.7,1.67,1.1,2.88,1.1c1.2,0,2.17-0.4,2.85-1.1c0.9-0.88,1.35-2.22,1.35-3.9c0-1.65-0.45-3-1.35-3.85
		c-0.67-0.72-1.65-1.1-2.85-1.1c-1.2,0-2.17,0.38-2.88,1.1C615.12,445.97,614.67,447.32,614.67,448.96z M631.74,465.09h-16.82v-7.02
		h1.52v5.7h15.3V465.09z M624.34,446.97c0.15,0.62,0.22,1.27,0.22,2c0,0.75-0.08,1.45-0.25,2.08h5.45v-4.07H624.34z"/>
	<path d="M636.84,457.89v-1.32h19.72v1.32h-9.12v7.47h-1.52v-7.47H636.84z M653.81,448.09v-3.62h-15.87v-1.35h17.4v4.85
		c0,2.15-0.2,4.47-0.55,6h-1.52C653.64,452.36,653.81,450.09,653.81,448.09z"/>
	<path d="M660.84,463.94v-1.27h9.07v-7.3h1.52v7.3h9.12v1.27H660.84z M662.07,444.59v-1.35h17.27v1.35h-7.9v1.82
		c0,4.47,3.95,7.15,8.1,7.95v1.37c-4.17-0.75-7.35-2.95-8.85-5.85c-1.47,2.92-4.85,5.1-8.87,5.85v-1.37c4-0.8,8.1-3.45,8.1-7.95
		v-1.82H662.07z"/>
	<path d="M695.44,451.89h1.52v10.77h7.6v1.27h-19.72v-1.27h4.47v-10.77h1.52v10.77h4.6V451.89z M701.81,450.96v-6.35h-15.87v-1.37
		h17.4v7.47c0,2.55-0.2,5.35-0.58,7.32h-1.52C701.61,456.11,701.81,453.34,701.81,450.96z"/>
</g>
<g>
	<path d="M333.39,592.85l-7.15,8.1h9.35v1.35h-11.42v-1.28l7.97-9.02c1.15-1.3,1.6-2.4,1.6-3.75c0-2.47-1.52-4.32-4.15-4.32
		c-2.65,0-4.15,1.88-4.15,4.32v0.55h-1.55v-0.58c0-3.07,2-5.67,5.7-5.67c3.72,0,5.7,2.6,5.7,5.67
		C335.29,590.01,334.92,591.18,333.39,592.85z"/>
	<path d="M349.12,600.8c-0.95,1.2-2.42,1.82-4.35,1.82s-3.37-0.62-4.35-1.82c-1.23-1.55-1.83-3.72-1.83-8.22
		c0-4.45,0.6-6.65,1.83-8.17c0.97-1.2,2.42-1.85,4.35-1.85s3.4,0.65,4.35,1.85c1.22,1.53,1.83,3.72,1.83,8.17
		C350.94,597.08,350.34,599.25,349.12,600.8z M348.02,585.38c-0.72-0.92-1.82-1.45-3.25-1.45s-2.52,0.53-3.25,1.45
		c-0.92,1.17-1.38,3.17-1.38,7.2c0,4.05,0.45,6.05,1.38,7.22c0.72,0.92,1.82,1.47,3.25,1.47s2.52-0.55,3.25-1.47
		c0.92-1.17,1.38-3.17,1.38-7.22C349.39,588.56,348.94,586.56,348.02,585.38z"/>
	<path d="M360.77,602.3v-17.77l-5.05,2.25v-1.55l5.22-2.35h1.38v19.42H360.77z"/>
	<path d="M371.12,597.93c0.28,2.27,1.75,3.32,3.82,3.32c3.17,0,4.3-2.38,4.37-8.25c-0.7,1.47-2.3,2.47-4.52,2.47
		c-3.55,0-5.82-2.47-5.82-6.47s2.42-6.45,5.97-6.45c2.47,0,4.37,1.1,5.32,3.47c0.53,1.3,0.65,3.02,0.65,5.1v0.42
		c0,8.3-1.83,11.07-6,11.07c-3,0-5.05-1.57-5.42-4.7H371.12z M370.54,589.01c0,3.22,1.75,5.1,4.4,5.1c2.62,0,4.37-1.88,4.37-5.1
		c0-3.2-1.75-5.07-4.37-5.07C372.29,583.93,370.54,585.81,370.54,589.01z"/>
	<path d="M387.34,602.3h-1.85v-2.67h1.85V602.3z"/>
	<path d="M409.37,600.8c-0.95,1.2-2.42,1.82-4.35,1.82s-3.37-0.62-4.35-1.82c-1.23-1.55-1.83-3.72-1.83-8.22
		c0-4.45,0.6-6.65,1.83-8.17c0.97-1.2,2.42-1.85,4.35-1.85s3.4,0.65,4.35,1.85c1.22,1.53,1.83,3.72,1.83,8.17
		C411.19,597.08,410.59,599.25,409.37,600.8z M408.27,585.38c-0.72-0.92-1.82-1.45-3.25-1.45s-2.52,0.53-3.25,1.45
		c-0.92,1.17-1.38,3.17-1.38,7.2c0,4.05,0.45,6.05,1.38,7.22c0.72,0.92,1.82,1.47,3.25,1.47s2.52-0.55,3.25-1.47
		c0.92-1.17,1.38-3.17,1.38-7.22C409.64,588.56,409.19,586.56,408.27,585.38z"/>
	<path d="M424.51,600.8c-0.95,1.2-2.42,1.82-4.35,1.82s-3.37-0.62-4.35-1.82c-1.22-1.55-1.83-3.72-1.83-8.22
		c0-4.45,0.6-6.65,1.83-8.17c0.97-1.2,2.42-1.85,4.35-1.85s3.4,0.65,4.35,1.85c1.22,1.53,1.83,3.72,1.83,8.17
		C426.34,597.08,425.74,599.25,424.51,600.8z M423.42,585.38c-0.72-0.92-1.82-1.45-3.25-1.45s-2.52,0.53-3.25,1.45
		c-0.92,1.17-1.38,3.17-1.38,7.2c0,4.05,0.45,6.05,1.38,7.22c0.72,0.92,1.82,1.47,3.25,1.47s2.52-0.55,3.25-1.47
		c0.92-1.17,1.38-3.17,1.38-7.22C424.79,588.56,424.34,586.56,423.42,585.38z"/>
</g>
<g>
	<path d="M334.02,634.24h-2.95v7.27h-1.52v-7.27h-5.3v-1.35h8.87c2.05,0,4.4-0.17,6.05-0.88v1.27
		C337.92,633.99,335.97,634.24,334.02,634.24z M325.25,624.99c0-1.8,0.65-3.2,1.75-4.12c1-0.88,2.47-1.38,4.15-1.38
		c1.7,0,3.17,0.5,4.17,1.38c1.1,0.92,1.75,2.32,1.75,4.12c0,1.75-0.65,3.17-1.75,4.1c-1,0.9-2.47,1.35-4.17,1.35
		c-1.67,0-3.15-0.45-4.15-1.35C325.89,628.17,325.25,626.74,325.25,624.99z M326.77,624.99c0,1.27,0.42,2.3,1.17,2.97
		c0.78,0.72,1.88,1.12,3.2,1.12c1.35,0,2.45-0.4,3.22-1.12c0.75-0.67,1.17-1.7,1.17-2.97c0-1.32-0.42-2.3-1.17-3.02
		c-0.78-0.72-1.88-1.1-3.22-1.1c-1.32,0-2.42,0.38-3.2,1.1C327.19,622.69,326.77,623.67,326.77,624.99z M342.79,619.37v22.12h-1.52
		v-2.97h-5.6v-1.32h5.6v-17.82H342.79z"/>
	<path d="M348.17,640.49v-1.27h19.72v1.27H348.17z M366.67,621.14h-15.75v9.65h16v1.32H349.4v-12.32h17.27V621.14z"/>
	<path d="M372.17,640.49v-1.27h19.72v1.27H372.17z M386.69,630.87h4.4v1.35h-18.15v-1.35h3.57v-9.72h-3.12v-1.35h17.27v1.35h-3.12
		v4.15C387.54,627.27,387.29,629.57,386.69,630.87z M378.04,621.14v9.72h7.15c0.62-1.4,0.82-3.6,0.82-5.42v-4.3H378.04z"/>
	<path d="M398.92,627.32v4.85h16.02v1.33h-8.1v5.72h9.05v1.27h-19.72v-1.27h9.15v-5.72h-7.92v-7.5h15.75v-4.85H397.4v-1.35h17.27
		v7.52H398.92z"/>
	<path d="M424.64,633.97c-0.62,2.42-2.38,4.67-4.97,6.02v-1.42c2.3-1.37,4.22-3.87,4.22-8.95v-9.97h1.52v9.97
		c0,5.1,1.9,7.52,4.25,8.97v1.4C427.09,638.64,425.32,636.39,424.64,633.97z M433.77,641.26h-1.47v-11.97h-4.1v-1.35h4.1v-8.45h1.47
		V641.26z M438.87,641.51h-1.5v-22.14h1.5V641.51z"/>
	<path d="M450.34,633.04c-0.72,3.15-3.3,5.77-6.4,6.95v-1.4c2.85-1.3,5.62-3.95,5.62-10.05v-8.9h1.52v8.9
		c0,6.1,2.82,8.65,5.65,10.05v1.4C453.69,638.74,451.07,636.19,450.34,633.04z M462.52,619.37v22.14h-1.52v-12.42h-5.75v-1.35h5.75
		v-8.37H462.52z"/>
	<path d="M481.69,640.21v-17.77l-5.05,2.25v-1.55l5.22-2.35h1.38v19.42H481.69z"/>
	<path d="M490.42,630.34v-1.35h19.97v1.35H490.42z M507.34,623.37v-2.35h-15.55v-1.35h17.07v3.65c0,1.2-0.12,2.72-0.42,3.8h-1.5
		C507.24,626.02,507.34,624.54,507.34,623.37z M491.97,632.92h1.53v2.97h13.82v-2.97h1.52v8.87h-16.87V632.92z M507.32,640.51v-3.3
		h-13.82v3.3H507.32z"/>
</g>
<g>
	<path d="M333.39,704.22l-7.15,8.1h9.35v1.35h-11.42v-1.28l7.97-9.02c1.15-1.3,1.6-2.4,1.6-3.75c0-2.47-1.52-4.32-4.15-4.32
		c-2.65,0-4.15,1.88-4.15,4.32v0.55h-1.55v-0.58c0-3.07,2-5.67,5.7-5.67c3.72,0,5.7,2.6,5.7,5.67
		C335.29,701.37,334.92,702.54,333.39,704.22z"/>
	<path d="M349.12,712.17c-0.95,1.2-2.42,1.82-4.35,1.82s-3.37-0.62-4.35-1.82c-1.23-1.55-1.83-3.72-1.83-8.22
		c0-4.45,0.6-6.65,1.83-8.17c0.97-1.2,2.42-1.85,4.35-1.85s3.4,0.65,4.35,1.85c1.22,1.53,1.83,3.72,1.83,8.17
		C350.94,708.44,350.34,710.62,349.12,712.17z M348.02,696.75c-0.72-0.92-1.82-1.45-3.25-1.45s-2.52,0.53-3.25,1.45
		c-0.92,1.17-1.38,3.17-1.38,7.2c0,4.05,0.45,6.05,1.38,7.22c0.72,0.92,1.82,1.47,3.25,1.47s2.52-0.55,3.25-1.47
		c0.92-1.17,1.38-3.17,1.38-7.22C349.39,699.92,348.94,697.92,348.02,696.75z"/>
	<path d="M360.77,713.67v-17.77l-5.05,2.25v-1.55l5.22-2.35h1.38v19.42H360.77z"/>
	<path d="M371.12,709.29c0.28,2.27,1.75,3.32,3.82,3.32c3.17,0,4.3-2.38,4.37-8.25c-0.7,1.47-2.3,2.47-4.52,2.47
		c-3.55,0-5.82-2.47-5.82-6.47s2.42-6.45,5.97-6.45c2.47,0,4.37,1.1,5.32,3.47c0.53,1.3,0.65,3.02,0.65,5.1v0.42
		c0,8.3-1.83,11.07-6,11.07c-3,0-5.05-1.57-5.42-4.7H371.12z M370.54,700.37c0,3.22,1.75,5.1,4.4,5.1c2.62,0,4.37-1.88,4.37-5.1
		c0-3.2-1.75-5.07-4.37-5.07C372.29,695.29,370.54,697.17,370.54,700.37z"/>
	<path d="M387.34,713.67h-1.85v-2.67h1.85V713.67z"/>
	<path d="M409.37,712.17c-0.95,1.2-2.42,1.82-4.35,1.82s-3.37-0.62-4.35-1.82c-1.23-1.55-1.83-3.72-1.83-8.22
		c0-4.45,0.6-6.65,1.83-8.17c0.97-1.2,2.42-1.85,4.35-1.85s3.4,0.65,4.35,1.85c1.22,1.53,1.83,3.72,1.83,8.17
		C411.19,708.44,410.59,710.62,409.37,712.17z M408.27,696.75c-0.72-0.92-1.82-1.45-3.25-1.45s-2.52,0.53-3.25,1.45
		c-0.92,1.17-1.38,3.17-1.38,7.2c0,4.05,0.45,6.05,1.38,7.22c0.72,0.92,1.82,1.47,3.25,1.47s2.52-0.55,3.25-1.47
		c0.92-1.17,1.38-3.17,1.38-7.22C409.64,699.92,409.19,697.92,408.27,696.75z"/>
	<path d="M424.51,712.17c-0.95,1.2-2.42,1.82-4.35,1.82s-3.37-0.62-4.35-1.82c-1.22-1.55-1.83-3.72-1.83-8.22
		c0-4.45,0.6-6.65,1.83-8.17c0.97-1.2,2.42-1.85,4.35-1.85s3.4,0.65,4.35,1.85c1.22,1.53,1.83,3.72,1.83,8.17
		C426.34,708.44,425.74,710.62,424.51,712.17z M423.42,696.75c-0.72-0.92-1.82-1.45-3.25-1.45s-2.52,0.53-3.25,1.45
		c-0.92,1.17-1.38,3.17-1.38,7.2c0,4.05,0.45,6.05,1.38,7.22c0.72,0.92,1.82,1.47,3.25,1.47s2.52-0.55,3.25-1.47
		c0.92-1.17,1.38-3.17,1.38-7.22C424.79,699.92,424.34,697.92,423.42,696.75z"/>
</g>
<g>
	<path d="M333.67,732.36h-8.87v-1.32h10.4v1.02c0,6.82-4.45,10.27-10.97,10.95v-1.3c3.87-0.45,6.9-1.97,8.4-4.77
		c-1.12,0.32-2.72,0.47-4.45,0.47h-3.37v-1.3h3.42c2,0,3.87-0.2,5-0.62C333.52,734.53,333.67,733.51,333.67,732.36z M326.25,753.15
		v-8.02h16.37v8.02H326.25z M341.09,746.45h-13.32v5.4h13.32V746.45z M342.62,743.1h-1.53v-5.75h-5.05v-1.33h5.05v-5.3h1.53V743.1z"
		/>
	<path d="M348.17,747.23v-1.35h19.72v1.35h-4.57v5.95h-1.52v-5.95h-7.45v5.95h-1.5v-5.95H348.17z M362.77,739.98h4.32v1.35h-18.15
		v-1.35h3.57v-7.62h-3.12v-1.32h17.27v1.32h-3.12v2.87C363.54,736.93,363.27,738.76,362.77,739.98z M354.04,732.36v7.62h7.27
		c0.47-1.22,0.7-3.05,0.7-4.62v-3H354.04z"/>
	<path d="M380.82,751.33h-7.8v-20.2h10.25v1.38h-8.72v7.95h7.92v1.38h-7.92V750h6.3c2,0,4-0.2,5.3-0.88v1.28
		C384.87,751.1,382.84,751.33,380.82,751.33z M390.52,730.73v22.14h-1.52V741.5h-4.97v-1.35h4.97v-9.42H390.52z"/>
	<path d="M396.95,737.18c0-0.65,0.33-1.17,0.92-1.58c0.92-0.67,2.6-1.02,4.72-1.02c2.15,0,3.8,0.35,4.75,1.02
		c0.58,0.4,0.9,0.92,0.9,1.58c0,0.67-0.32,1.2-0.9,1.6c-0.83,0.6-2.22,0.92-4,1v2.02h3.92c2.25,0,4.07-0.45,5.2-1.2v-9.87h1.52v6.02
		h3.52v1.32h-3.52v5.57h-1.52v-1.9c-1.17,0.85-3,1.22-5.52,1.22H396v-1.17h5.82v-2.02c-1.75-0.07-3.15-0.4-3.95-1
		C397.27,738.38,396.95,737.86,396.95,737.18z M401.87,730.01h1.52v1.9h5.45v1.17H396.4v-1.17h5.47V730.01z M399.37,749.75v2.27
		h14.92v1.12h-16.45v-4.52h14.62v-2.2h-14.62v-1.17h16.15v4.5H399.37z M398.42,737.18c0,0.32,0.15,0.55,0.45,0.8
		c0.7,0.47,2.05,0.72,3.72,0.72s3.05-0.25,3.72-0.72c0.32-0.25,0.47-0.48,0.47-0.8c0-0.33-0.15-0.58-0.47-0.78
		c-0.67-0.5-2.05-0.72-3.72-0.72s-3.02,0.22-3.72,0.72C398.57,736.61,398.42,736.86,398.42,737.18z"/>
	<path d="M421.17,734.66c0-1.05,0.45-1.88,1.35-2.47c1.47-1.02,4.1-1.45,7.55-1.45c3.42,0,6.07,0.43,7.55,1.45
		c0.88,0.6,1.35,1.42,1.35,2.47s-0.47,1.87-1.35,2.47c-0.65,0.43-1.5,0.78-2.55,1v3.45h4.95v1.35h-19.97v-1.35h5.05v-3.45
		c-1.07-0.22-1.92-0.55-2.57-1C421.62,736.53,421.17,735.71,421.17,734.66z M421.17,749.65c0-1.1,0.5-1.97,1.55-2.57
		c1.5-0.92,3.97-1.4,7.35-1.4c3.37,0,5.85,0.47,7.32,1.4c1.05,0.6,1.57,1.47,1.57,2.57s-0.53,1.97-1.57,2.6
		c-1.47,0.92-3.95,1.32-7.32,1.32c-3.38,0-5.85-0.4-7.35-1.32C421.67,751.63,421.17,750.75,421.17,749.65z M422.69,734.66
		c0,0.6,0.3,1.1,0.88,1.47c1.15,0.77,3.4,1.15,6.5,1.15c3.1,0,5.35-0.38,6.5-1.15c0.6-0.38,0.88-0.88,0.88-1.47
		c0-0.6-0.28-1.1-0.88-1.47c-1.15-0.8-3.4-1.15-6.5-1.15c-3.1,0-5.35,0.35-6.5,1.15C423,733.56,422.69,734.06,422.69,734.66z
		 M422.69,749.65c0,0.6,0.3,1.12,0.92,1.5c1.15,0.75,3.35,1.12,6.45,1.12c3.1,0,5.3-0.38,6.45-1.12c0.65-0.38,0.92-0.9,0.92-1.5
		s-0.28-1.1-0.92-1.55c-1.15-0.7-3.35-1.07-6.45-1.07c-3.1,0-5.3,0.37-6.45,1.07C423,748.55,422.69,749.05,422.69,749.65z
		 M433.57,738.38c-1.05,0.12-2.22,0.2-3.5,0.2c-1.28,0-2.45-0.05-3.47-0.2v3.2h6.97V738.38z"/>
	<path d="M444.05,742.18v-1.35h19.97v1.35H444.05z M445.17,749.53c0-1.22,0.58-2.1,1.65-2.75c1.53-0.9,4.05-1.38,7.25-1.38
		s5.72,0.47,7.25,1.38c1.07,0.65,1.65,1.52,1.65,2.75c0,1.17-0.58,2.1-1.65,2.72c-1.52,0.95-4.05,1.32-7.25,1.32
		s-5.72-0.38-7.25-1.32C445.75,751.63,445.17,750.7,445.17,749.53z M447.12,730.88v5.27h15.5v1.33h-17.02v-6.6H447.12z
		 M446.69,749.53c0,0.67,0.33,1.2,0.98,1.62c1.17,0.75,3.37,1.12,6.4,1.12c3,0,5.22-0.38,6.4-1.12c0.62-0.43,0.97-0.95,0.97-1.62
		c0-0.7-0.35-1.22-0.97-1.65c-1.17-0.75-3.4-1.12-6.4-1.12c-3.02,0-5.22,0.38-6.4,1.12C447.02,748.3,446.69,748.83,446.69,749.53z"
		/>
	<path d="M476.79,743.28h-7.97v-6.85h8.37v-4.12h-8.37v-1.3h9.9v6.72h-8.37v4.25h6.5c1.9,0,3.8-0.23,5.07-0.88v1.22
		C480.69,743.03,478.74,743.28,476.79,743.28z M485.09,753.28v-5.47h-15.15v-1.33h16.67v6.8H485.09z M486.62,744.28h-1.53v-5.07
		h-4.82v-1.3h4.82v-3.1h-4.82v-1.32h4.82v-2.75h1.53V744.28z"/>
	<path d="M508.62,742.13l-7.15,8.1h9.35v1.35h-11.42v-1.28l7.97-9.02c1.15-1.3,1.6-2.4,1.6-3.75c0-2.47-1.52-4.32-4.15-4.32
		c-2.65,0-4.15,1.88-4.15,4.32v0.55h-1.55v-0.58c0-3.07,2-5.67,5.7-5.67c3.72,0,5.7,2.6,5.7,5.67
		C510.52,739.28,510.14,740.46,508.62,742.13z"/>
	<path d="M514.42,741.71v-1.35h19.97v1.35H514.42z M531.34,734.73v-2.35h-15.55v-1.35h17.07v3.65c0,1.2-0.12,2.72-0.42,3.8h-1.5
		C531.24,737.38,531.34,735.91,531.34,734.73z M515.97,744.28h1.53v2.97h13.82v-2.97h1.52v8.87h-16.87V744.28z M531.32,751.88v-3.3
		h-13.82v3.3H531.32z"/>
</g>
<g>
	<path d="M400.96,867.01l-7.15,8.1h9.35v1.35h-11.42v-1.28l7.97-9.02c1.15-1.3,1.6-2.4,1.6-3.75c0-2.47-1.52-4.32-4.15-4.32
		c-2.65,0-4.15,1.88-4.15,4.32v0.55h-1.55v-0.58c0-3.07,2-5.67,5.7-5.67c3.72,0,5.7,2.6,5.7,5.67
		C402.86,864.16,402.49,865.34,400.96,867.01z"/>
	<path d="M416.69,874.96c-0.95,1.2-2.42,1.82-4.35,1.82s-3.37-0.62-4.35-1.82c-1.23-1.55-1.83-3.72-1.83-8.22
		c0-4.45,0.6-6.65,1.83-8.17c0.97-1.2,2.42-1.85,4.35-1.85s3.4,0.65,4.35,1.85c1.22,1.53,1.83,3.72,1.83,8.17
		C418.51,871.24,417.91,873.41,416.69,874.96z M415.59,859.54c-0.72-0.92-1.82-1.45-3.25-1.45s-2.52,0.53-3.25,1.45
		c-0.92,1.17-1.38,3.17-1.38,7.2c0,4.05,0.45,6.05,1.38,7.22c0.72,0.92,1.82,1.47,3.25,1.47s2.52-0.55,3.25-1.47
		c0.92-1.17,1.38-3.17,1.38-7.22C416.96,862.71,416.51,860.71,415.59,859.54z"/>
	<path d="M431.26,867.01l-7.15,8.1h9.35v1.35h-11.42v-1.28l7.97-9.02c1.15-1.3,1.6-2.4,1.6-3.75c0-2.47-1.52-4.32-4.15-4.32
		c-2.65,0-4.15,1.88-4.15,4.32v0.55h-1.55v-0.58c0-3.07,2-5.67,5.7-5.67c3.72,0,5.7,2.6,5.7,5.67
		C433.16,864.16,432.79,865.34,431.26,867.01z"/>
	<path d="M443.49,876.46v-17.77l-5.05,2.25v-1.55l5.22-2.35h1.38v19.42H443.49z"/>
	<path d="M454.91,876.46h-1.85v-2.67h1.85V876.46z"/>
	<path d="M476.94,874.96c-0.95,1.2-2.42,1.82-4.35,1.82s-3.37-0.62-4.35-1.82c-1.23-1.55-1.83-3.72-1.83-8.22
		c0-4.45,0.6-6.65,1.83-8.17c0.97-1.2,2.42-1.85,4.35-1.85s3.4,0.65,4.35,1.85c1.22,1.53,1.83,3.72,1.83,8.17
		C478.76,871.24,478.16,873.41,476.94,874.96z M475.84,859.54c-0.72-0.92-1.82-1.45-3.25-1.45s-2.52,0.53-3.25,1.45
		c-0.92,1.17-1.38,3.17-1.38,7.2c0,4.05,0.45,6.05,1.38,7.22c0.72,0.92,1.82,1.47,3.25,1.47s2.52-0.55,3.25-1.47
		c0.92-1.17,1.38-3.17,1.38-7.22C477.21,862.71,476.76,860.71,475.84,859.54z"/>
	<path d="M492.08,874.96c-0.95,1.2-2.42,1.82-4.35,1.82s-3.37-0.62-4.35-1.82c-1.22-1.55-1.83-3.72-1.83-8.22
		c0-4.45,0.6-6.65,1.83-8.17c0.97-1.2,2.42-1.85,4.35-1.85s3.4,0.65,4.35,1.85c1.22,1.53,1.83,3.72,1.83,8.17
		C493.91,871.24,493.31,873.41,492.08,874.96z M490.99,859.54c-0.72-0.92-1.82-1.45-3.25-1.45s-2.52,0.53-3.25,1.45
		c-0.92,1.17-1.38,3.17-1.38,7.2c0,4.05,0.45,6.05,1.38,7.22c0.72,0.92,1.82,1.47,3.25,1.47s2.52-0.55,3.25-1.47
		c0.92-1.17,1.38-3.17,1.38-7.22C492.36,862.71,491.91,860.71,490.99,859.54z"/>
</g>
<g>
	<path d="M398.09,903.2h-1.12v3.82h-1.47v-3.82h-3.95v-1.22h6.17c1.83,0,3.55-0.1,4.82-0.7v1.17
		C401.44,903.07,399.84,903.2,398.09,903.2z M392.37,896.85c0-1.05,0.42-1.9,1.15-2.47c0.85-0.67,2.05-0.98,3.37-0.98
		c1.3,0,2.5,0.3,3.35,0.98c0.73,0.57,1.15,1.42,1.15,2.47c0,1.03-0.42,1.9-1.15,2.45c-0.85,0.67-2.05,1-3.35,1
		c-1.33,0-2.52-0.32-3.37-1C392.79,898.75,392.37,897.88,392.37,896.85z M393.82,896.85c0,0.62,0.22,1.15,0.65,1.53
		c0.6,0.5,1.45,0.75,2.42,0.75s1.8-0.25,2.4-0.75c0.42-0.38,0.7-0.9,0.7-1.53c0-0.65-0.27-1.15-0.7-1.52
		c-0.6-0.52-1.42-0.75-2.4-0.75s-1.83,0.23-2.42,0.75C394.04,895.7,393.82,896.2,393.82,896.85z M409.01,910.75v-2.17h1.52v7.37
		h-16.6v-7.37h1.52v2.17H409.01z M409.01,912.02h-13.55v2.65h13.55V912.02z M405.74,907.17h-1.47v-1.38h-3.97v-1.17h3.97v-10.97
		h1.47V907.17z M409.01,893.53h1.52v13.7h-1.52V893.53z"/>
	<path d="M426.41,914.12h-9.82v-20.2h10.32v1.38h-8.8v17.5h8.52c2.42,0,4.62-0.7,5.92-1.92v-17.35h1.52v22.12h-1.52v-3.47
		C431.39,913.45,429.01,914.12,426.41,914.12z"/>
	<path d="M440.09,893.95h11.82v1.35h-5.15v7.67c0,5.47,2.75,8.5,5.37,9.8v1.37c-2.92-1.2-5.27-3.85-6.12-6.75
		c-0.85,2.92-3.32,5.62-6.17,6.75v-1.37c2.57-1.22,5.4-4.32,5.4-9.8v-7.67h-5.15V893.95z M457.56,893.53v9.52h3.72v1.3h-3.72v11.32
		h-1.52v-22.14H457.56z"/>
	<path d="M464.07,899.67c0-2.12,0.67-3.8,1.83-4.9c0.95-0.9,2.3-1.38,3.9-1.38s2.92,0.48,3.87,1.38c1.17,1.1,1.83,2.77,1.83,4.9
		c0,2.15-0.65,3.82-1.83,4.92c-0.95,0.9-2.27,1.4-3.87,1.4s-2.95-0.5-3.9-1.4C464.74,903.5,464.07,901.83,464.07,899.67z
		 M465.57,899.67c0,1.67,0.45,3.02,1.32,3.88c0.7,0.72,1.7,1.12,2.9,1.12c1.2,0,2.17-0.4,2.9-1.12c0.85-0.85,1.3-2.2,1.3-3.88
		c0-1.65-0.45-3-1.3-3.85c-0.72-0.72-1.7-1.1-2.9-1.1c-1.2,0-2.2,0.38-2.9,1.1C466.01,896.68,465.57,898.03,465.57,899.67z
		 M482.64,915.8h-16.82v-7.02h1.52v5.7h15.3V915.8z M482.19,908.92h-1.53v-15.4h1.53V908.92z"/>
	<path d="M497.31,898.6v-3.27h-8.72v-1.37h10.25v4.5c0,8.4-3.35,13.95-10.4,15.8v-1.38C494.31,911.1,497.31,906.15,497.31,898.6z
		 M504.56,915.65v-22.12h1.52v22.12H504.56z"/>
	<path d="M511.62,904.97v-1.35h19.97v1.35H511.62z M512.74,912.32c0-1.22,0.58-2.1,1.65-2.75c1.53-0.9,4.05-1.38,7.25-1.38
		s5.72,0.47,7.25,1.38c1.07,0.65,1.65,1.52,1.65,2.75c0,1.17-0.58,2.1-1.65,2.72c-1.52,0.95-4.05,1.32-7.25,1.32
		s-5.72-0.38-7.25-1.32C513.32,914.42,512.74,913.5,512.74,912.32z M514.69,893.68v5.27h15.5v1.33h-17.02v-6.6H514.69z
		 M514.26,912.32c0,0.67,0.33,1.2,0.98,1.62c1.17,0.75,3.37,1.12,6.4,1.12c3,0,5.22-0.38,6.4-1.12c0.62-0.43,0.97-0.95,0.97-1.62
		c0-0.7-0.35-1.22-0.97-1.65c-1.17-0.75-3.4-1.12-6.4-1.12c-3.02,0-5.22,0.38-6.4,1.12C514.59,911.1,514.26,911.62,514.26,912.32z"
		/>
	<path d="M541.79,907.2c-0.72,3.15-3.32,5.77-6.42,6.95v-1.4c2.87-1.3,5.65-3.95,5.65-10.05v-8.9h1.52v8.9
		c0,6.1,2.8,8.65,5.65,10.05v1.4C545.14,912.9,542.51,910.35,541.79,907.2z M553.56,893.53v9.52h3.72v1.3h-3.72v11.32h-1.52v-22.14
		H553.56z"/>
</g>
</svg>
